<svg xmlns="http://www.w3.org/2000/svg" width="870" height="270" viewBox="0 0 870 270" font-family="Helvetica Neue, Helvetica, Arial, sans-serif">
<defs><pattern id="grid" width="32.5" height="32.5" patternUnits="userSpaceOnUse"><path d="M32.5 0H0V32.5" fill="none" stroke="#F1EFE8" stroke-width="1"/></pattern></defs>
<text x="36" y="39.6" font-size="16" fill="#5f5e5a" text-anchor="end"><tspan font-style="italic">w</tspan><tspan font-size="11" dy="4">1</tspan></text>
<line x1="50" y1="34" x2="350" y2="34" stroke="#b4b2a9" stroke-width="1.5"/>
<line x1="50" y1="31" x2="50" y2="37" stroke="#b4b2a9" stroke-width="1"/>
<line x1="87.5" y1="31" x2="87.5" y2="37" stroke="#b4b2a9" stroke-width="1"/>
<line x1="125" y1="31" x2="125" y2="37" stroke="#b4b2a9" stroke-width="1"/>
<line x1="162.5" y1="31" x2="162.5" y2="37" stroke="#b4b2a9" stroke-width="1"/>
<line x1="200" y1="31" x2="200" y2="37" stroke="#b4b2a9" stroke-width="1"/>
<line x1="237.5" y1="31" x2="237.5" y2="37" stroke="#b4b2a9" stroke-width="1"/>
<line x1="275" y1="31" x2="275" y2="37" stroke="#b4b2a9" stroke-width="1"/>
<line x1="312.5" y1="31" x2="312.5" y2="37" stroke="#b4b2a9" stroke-width="1"/>
<line x1="350" y1="31" x2="350" y2="37" stroke="#b4b2a9" stroke-width="1"/>
<circle cx="143" cy="34" r="4.5" fill="#534AB7"/>
<text x="36" y="81.6" font-size="16" fill="#5f5e5a" text-anchor="end"><tspan font-style="italic">w</tspan><tspan font-size="11" dy="4">2</tspan></text>
<line x1="50" y1="76" x2="350" y2="76" stroke="#b4b2a9" stroke-width="1.5"/>
<line x1="50" y1="73" x2="50" y2="79" stroke="#b4b2a9" stroke-width="1"/>
<line x1="87.5" y1="73" x2="87.5" y2="79" stroke="#b4b2a9" stroke-width="1"/>
<line x1="125" y1="73" x2="125" y2="79" stroke="#b4b2a9" stroke-width="1"/>
<line x1="162.5" y1="73" x2="162.5" y2="79" stroke="#b4b2a9" stroke-width="1"/>
<line x1="200" y1="73" x2="200" y2="79" stroke="#b4b2a9" stroke-width="1"/>
<line x1="237.5" y1="73" x2="237.5" y2="79" stroke="#b4b2a9" stroke-width="1"/>
<line x1="275" y1="73" x2="275" y2="79" stroke="#b4b2a9" stroke-width="1"/>
<line x1="312.5" y1="73" x2="312.5" y2="79" stroke="#b4b2a9" stroke-width="1"/>
<line x1="350" y1="73" x2="350" y2="79" stroke="#b4b2a9" stroke-width="1"/>
<circle cx="254" cy="76" r="4.5" fill="#534AB7"/>
<text x="36" y="123.6" font-size="16" fill="#5f5e5a" text-anchor="end"><tspan font-style="italic">w</tspan><tspan font-size="11" dy="4">3</tspan></text>
<line x1="50" y1="118" x2="350" y2="118" stroke="#b4b2a9" stroke-width="1.5"/>
<line x1="50" y1="115" x2="50" y2="121" stroke="#b4b2a9" stroke-width="1"/>
<line x1="87.5" y1="115" x2="87.5" y2="121" stroke="#b4b2a9" stroke-width="1"/>
<line x1="125" y1="115" x2="125" y2="121" stroke="#b4b2a9" stroke-width="1"/>
<line x1="162.5" y1="115" x2="162.5" y2="121" stroke="#b4b2a9" stroke-width="1"/>
<line x1="200" y1="115" x2="200" y2="121" stroke="#b4b2a9" stroke-width="1"/>
<line x1="237.5" y1="115" x2="237.5" y2="121" stroke="#b4b2a9" stroke-width="1"/>
<line x1="275" y1="115" x2="275" y2="121" stroke="#b4b2a9" stroke-width="1"/>
<line x1="312.5" y1="115" x2="312.5" y2="121" stroke="#b4b2a9" stroke-width="1"/>
<line x1="350" y1="115" x2="350" y2="121" stroke="#b4b2a9" stroke-width="1"/>
<circle cx="185" cy="118" r="4.5" fill="#534AB7"/>
<text x="36" y="165.6" font-size="16" fill="#5f5e5a" text-anchor="end"><tspan font-style="italic">w</tspan><tspan font-size="11" dy="4">4</tspan></text>
<line x1="50" y1="160" x2="350" y2="160" stroke="#b4b2a9" stroke-width="1.5"/>
<line x1="50" y1="157" x2="50" y2="163" stroke="#b4b2a9" stroke-width="1"/>
<line x1="87.5" y1="157" x2="87.5" y2="163" stroke="#b4b2a9" stroke-width="1"/>
<line x1="125" y1="157" x2="125" y2="163" stroke="#b4b2a9" stroke-width="1"/>
<line x1="162.5" y1="157" x2="162.5" y2="163" stroke="#b4b2a9" stroke-width="1"/>
<line x1="200" y1="157" x2="200" y2="163" stroke="#b4b2a9" stroke-width="1"/>
<line x1="237.5" y1="157" x2="237.5" y2="163" stroke="#b4b2a9" stroke-width="1"/>
<line x1="275" y1="157" x2="275" y2="163" stroke="#b4b2a9" stroke-width="1"/>
<line x1="312.5" y1="157" x2="312.5" y2="163" stroke="#b4b2a9" stroke-width="1"/>
<line x1="350" y1="157" x2="350" y2="163" stroke="#b4b2a9" stroke-width="1"/>
<circle cx="242" cy="160" r="4.5" fill="#534AB7"/>
<text x="200" y="205.2" font-size="15" fill="#5f5e5a" text-anchor="middle">4 parameters, exact</text>
<text x="200" y="236.7" font-size="19" fill="#1F5B8A" text-anchor="middle" font-style="italic">4 × 32 = 128 bits</text>
<text x="516" y="39.6" font-size="16" fill="#5f5e5a" text-anchor="end"><tspan font-style="italic">w</tspan><tspan font-size="11" dy="4">1</tspan></text>
<line x1="530" y1="34" x2="830" y2="34" stroke="#b4b2a9" stroke-width="1.5"/>
<line x1="530" y1="31" x2="530" y2="37" stroke="#b4b2a9" stroke-width="1"/>
<line x1="567.5" y1="31" x2="567.5" y2="37" stroke="#b4b2a9" stroke-width="1"/>
<line x1="605" y1="31" x2="605" y2="37" stroke="#b4b2a9" stroke-width="1"/>
<line x1="642.5" y1="31" x2="642.5" y2="37" stroke="#b4b2a9" stroke-width="1"/>
<line x1="680" y1="31" x2="680" y2="37" stroke="#b4b2a9" stroke-width="1"/>
<line x1="717.5" y1="31" x2="717.5" y2="37" stroke="#b4b2a9" stroke-width="1"/>
<line x1="755" y1="31" x2="755" y2="37" stroke="#b4b2a9" stroke-width="1"/>
<line x1="792.5" y1="31" x2="792.5" y2="37" stroke="#b4b2a9" stroke-width="1"/>
<line x1="830" y1="31" x2="830" y2="37" stroke="#b4b2a9" stroke-width="1"/>
<polygon points="533.0,33.8 536.0,33.8 539.0,33.7 542.0,33.6 545.0,33.5 548.0,33.3 551.0,33.1 554.0,32.9 557.0,32.6 560.0,32.2 563.0,31.8 566.0,31.4 569.0,30.8 572.0,30.2 575.0,29.6 578.0,28.8 581.0,28.0 584.0,27.1 587.0,26.2 590.0,25.3 593.0,24.3 596.0,23.3 599.0,22.4 602.0,21.5 605.0,20.6 608.0,19.9 611.0,19.2 614.0,18.7 617.0,18.3 620.0,18.1 623.0,18.0 626.0,18.1 629.0,18.3 632.0,18.7 635.0,19.2 638.0,19.9 641.0,20.6 644.0,21.5 647.0,22.4 650.0,23.3 653.0,24.3 656.0,25.3 659.0,26.2 662.0,27.1 665.0,28.0 668.0,28.8 671.0,29.6 674.0,30.2 677.0,30.8 680.0,31.4 683.0,31.8 686.0,32.2 689.0,32.6 692.0,32.9 695.0,33.1 698.0,33.3 701.0,33.5 704.0,33.6 707.0,33.7 710.0,33.8 713.0,33.8" fill="#EEEDFE" stroke="#534AB7" stroke-width="1.5"/>
<text x="516" y="81.6" font-size="16" fill="#5f5e5a" text-anchor="end"><tspan font-style="italic">w</tspan><tspan font-size="11" dy="4">2</tspan></text>
<line x1="530" y1="76" x2="830" y2="76" stroke="#b4b2a9" stroke-width="1.5"/>
<line x1="530" y1="73" x2="530" y2="79" stroke="#b4b2a9" stroke-width="1"/>
<line x1="567.5" y1="73" x2="567.5" y2="79" stroke="#b4b2a9" stroke-width="1"/>
<line x1="605" y1="73" x2="605" y2="79" stroke="#b4b2a9" stroke-width="1"/>
<line x1="642.5" y1="73" x2="642.5" y2="79" stroke="#b4b2a9" stroke-width="1"/>
<line x1="680" y1="73" x2="680" y2="79" stroke="#b4b2a9" stroke-width="1"/>
<line x1="717.5" y1="73" x2="717.5" y2="79" stroke="#b4b2a9" stroke-width="1"/>
<line x1="755" y1="73" x2="755" y2="79" stroke="#b4b2a9" stroke-width="1"/>
<line x1="792.5" y1="73" x2="792.5" y2="79" stroke="#b4b2a9" stroke-width="1"/>
<line x1="830" y1="73" x2="830" y2="79" stroke="#b4b2a9" stroke-width="1"/>
<polygon points="644.0,75.8 647.0,75.8 650.0,75.7 653.0,75.6 656.0,75.5 659.0,75.3 662.0,75.1 665.0,74.9 668.0,74.6 671.0,74.2 674.0,73.8 677.0,73.4 680.0,72.8 683.0,72.2 686.0,71.6 689.0,70.8 692.0,70.0 695.0,69.1 698.0,68.2 701.0,67.3 704.0,66.3 707.0,65.3 710.0,64.4 713.0,63.5 716.0,62.6 719.0,61.9 722.0,61.2 725.0,60.7 728.0,60.3 731.0,60.1 734.0,60.0 737.0,60.1 740.0,60.3 743.0,60.7 746.0,61.2 749.0,61.9 752.0,62.6 755.0,63.5 758.0,64.4 761.0,65.3 764.0,66.3 767.0,67.3 770.0,68.2 773.0,69.1 776.0,70.0 779.0,70.8 782.0,71.6 785.0,72.2 788.0,72.8 791.0,73.4 794.0,73.8 797.0,74.2 800.0,74.6 803.0,74.9 806.0,75.1 809.0,75.3 812.0,75.5 815.0,75.6 818.0,75.7 821.0,75.8 824.0,75.8" fill="#EEEDFE" stroke="#534AB7" stroke-width="1.5"/>
<text x="516" y="123.6" font-size="16" fill="#5f5e5a" text-anchor="end"><tspan font-style="italic">w</tspan><tspan font-size="11" dy="4">3</tspan></text>
<line x1="530" y1="118" x2="830" y2="118" stroke="#b4b2a9" stroke-width="1.5"/>
<line x1="530" y1="115" x2="530" y2="121" stroke="#b4b2a9" stroke-width="1"/>
<line x1="567.5" y1="115" x2="567.5" y2="121" stroke="#b4b2a9" stroke-width="1"/>
<line x1="605" y1="115" x2="605" y2="121" stroke="#b4b2a9" stroke-width="1"/>
<line x1="642.5" y1="115" x2="642.5" y2="121" stroke="#b4b2a9" stroke-width="1"/>
<line x1="680" y1="115" x2="680" y2="121" stroke="#b4b2a9" stroke-width="1"/>
<line x1="717.5" y1="115" x2="717.5" y2="121" stroke="#b4b2a9" stroke-width="1"/>
<line x1="755" y1="115" x2="755" y2="121" stroke="#b4b2a9" stroke-width="1"/>
<line x1="792.5" y1="115" x2="792.5" y2="121" stroke="#b4b2a9" stroke-width="1"/>
<line x1="830" y1="115" x2="830" y2="121" stroke="#b4b2a9" stroke-width="1"/>
<polygon points="575.0,117.8 578.0,117.8 581.0,117.7 584.0,117.6 587.0,117.5 590.0,117.3 593.0,117.1 596.0,116.9 599.0,116.6 602.0,116.2 605.0,115.8 608.0,115.4 611.0,114.8 614.0,114.2 617.0,113.6 620.0,112.8 623.0,112.0 626.0,111.1 629.0,110.2 632.0,109.3 635.0,108.3 638.0,107.3 641.0,106.4 644.0,105.5 647.0,104.6 650.0,103.9 653.0,103.2 656.0,102.7 659.0,102.3 662.0,102.1 665.0,102.0 668.0,102.1 671.0,102.3 674.0,102.7 677.0,103.2 680.0,103.9 683.0,104.6 686.0,105.5 689.0,106.4 692.0,107.3 695.0,108.3 698.0,109.3 701.0,110.2 704.0,111.1 707.0,112.0 710.0,112.8 713.0,113.6 716.0,114.2 719.0,114.8 722.0,115.4 725.0,115.8 728.0,116.2 731.0,116.6 734.0,116.9 737.0,117.1 740.0,117.3 743.0,117.5 746.0,117.6 749.0,117.7 752.0,117.8 755.0,117.8" fill="#EEEDFE" stroke="#534AB7" stroke-width="1.5"/>
<text x="516" y="165.6" font-size="16" fill="#5f5e5a" text-anchor="end"><tspan font-style="italic">w</tspan><tspan font-size="11" dy="4">4</tspan></text>
<line x1="530" y1="160" x2="830" y2="160" stroke="#b4b2a9" stroke-width="1.5"/>
<line x1="530" y1="157" x2="530" y2="163" stroke="#b4b2a9" stroke-width="1"/>
<line x1="567.5" y1="157" x2="567.5" y2="163" stroke="#b4b2a9" stroke-width="1"/>
<line x1="605" y1="157" x2="605" y2="163" stroke="#b4b2a9" stroke-width="1"/>
<line x1="642.5" y1="157" x2="642.5" y2="163" stroke="#b4b2a9" stroke-width="1"/>
<line x1="680" y1="157" x2="680" y2="163" stroke="#b4b2a9" stroke-width="1"/>
<line x1="717.5" y1="157" x2="717.5" y2="163" stroke="#b4b2a9" stroke-width="1"/>
<line x1="755" y1="157" x2="755" y2="163" stroke="#b4b2a9" stroke-width="1"/>
<line x1="792.5" y1="157" x2="792.5" y2="163" stroke="#b4b2a9" stroke-width="1"/>
<line x1="830" y1="157" x2="830" y2="163" stroke="#b4b2a9" stroke-width="1"/>
<polygon points="632.0,159.8 635.0,159.8 638.0,159.7 641.0,159.6 644.0,159.5 647.0,159.3 650.0,159.1 653.0,158.9 656.0,158.6 659.0,158.2 662.0,157.8 665.0,157.4 668.0,156.8 671.0,156.2 674.0,155.6 677.0,154.8 680.0,154.0 683.0,153.1 686.0,152.2 689.0,151.3 692.0,150.3 695.0,149.3 698.0,148.4 701.0,147.5 704.0,146.6 707.0,145.9 710.0,145.2 713.0,144.7 716.0,144.3 719.0,144.1 722.0,144.0 725.0,144.1 728.0,144.3 731.0,144.7 734.0,145.2 737.0,145.9 740.0,146.6 743.0,147.5 746.0,148.4 749.0,149.3 752.0,150.3 755.0,151.3 758.0,152.2 761.0,153.1 764.0,154.0 767.0,154.8 770.0,155.6 773.0,156.2 776.0,156.8 779.0,157.4 782.0,157.8 785.0,158.2 788.0,158.6 791.0,158.9 794.0,159.1 797.0,159.3 800.0,159.5 803.0,159.6 806.0,159.7 809.0,159.8 812.0,159.8" fill="#EEEDFE" stroke="#534AB7" stroke-width="1.5"/>
<text x="680" y="205.2" font-size="15" fill="#5f5e5a" text-anchor="middle">4 parameters, approximate</text>
<text x="680" y="236.7" font-size="19" fill="#1F5B8A" text-anchor="middle" font-style="italic">4 × 2 = 8 bits</text>
</svg>
