<svg xmlns="http://www.w3.org/2000/svg" width="860" height="310" viewBox="0 0 860 310" font-family="Helvetica Neue, Helvetica, Arial, sans-serif">
<defs><pattern id="grid" width="32.5" height="32.5" patternUnits="userSpaceOnUse"><path d="M32.5 0H0V32.5" fill="none" stroke="#F1EFE8" stroke-width="1"/></pattern></defs>
<defs><marker id="ah" viewBox="0 0 10 10" refX="8" refY="5" markerWidth="10" markerHeight="10" markerUnits="userSpaceOnUse" orient="auto"><path d="M2 1L8 5L2 9" fill="none" stroke="#888780" stroke-width="1.5" stroke-linecap="round" stroke-linejoin="round"/></marker></defs>
<line x1="30" y1="236" x2="830" y2="236" stroke="#b4b2a9" stroke-width="1"/>
<text x="830" y="256.6" font-size="13" fill="#5f5e5a" text-anchor="end" font-style="italic">weights w</text>
<text x="30" y="20.6" font-size="13" fill="#5f5e5a" text-anchor="start">training loss</text>
<path d="M30.0 30.9 L31.3 31.0 L32.7 31.1 L34.0 31.3 L35.3 31.4 L36.7 31.6 L38.0 31.7 L39.3 31.8 L40.7 32.0 L42.0 32.1 L43.3 32.3 L44.7 32.4 L46.0 32.5 L47.3 32.7 L48.7 32.8 L50.0 32.9 L51.3 33.1 L52.7 33.2 L54.0 33.3 L55.3 33.5 L56.7 33.6 L58.0 33.7 L59.3 33.9 L60.7 34.0 L62.0 34.1 L63.3 34.3 L64.7 34.4 L66.0 34.5 L67.3 34.7 L68.7 34.8 L70.0 34.9 L71.3 35.0 L72.7 35.2 L74.0 35.3 L75.3 35.4 L76.7 35.6 L78.0 35.7 L79.3 35.8 L80.7 35.9 L82.0 36.1 L83.3 36.2 L84.7 36.3 L86.0 36.4 L87.3 36.5 L88.7 36.7 L90.0 36.8 L91.3 36.9 L92.7 37.0 L94.0 37.1 L95.3 37.3 L96.7 37.4 L98.0 37.5 L99.3 37.6 L100.7 37.7 L102.0 37.8 L103.3 38.0 L104.7 38.1 L106.0 38.2 L107.3 38.3 L108.7 38.4 L110.0 38.5 L111.3 38.6 L112.7 38.8 L114.0 38.9 L115.3 39.0 L116.7 39.1 L118.0 39.2 L119.3 39.3 L120.7 39.4 L122.0 39.5 L123.3 39.6 L124.7 39.7 L126.0 39.9 L127.3 40.0 L128.7 40.1 L130.0 40.2 L131.3 40.3 L132.7 40.4 L134.0 40.5 L135.3 40.6 L136.7 40.7 L138.0 40.8 L139.3 40.9 L140.7 41.0 L142.0 41.1 L143.3 41.2 L144.7 41.3 L146.0 41.4 L147.3 41.5 L148.7 41.6 L150.0 41.7 L151.3 41.8 L152.7 41.9 L154.0 42.0 L155.3 42.1 L156.7 42.2 L158.0 42.4 L159.3 42.5 L160.7 42.6 L162.0 42.8 L163.3 43.0 L164.7 43.2 L166.0 43.4 L167.3 43.7 L168.7 44.1 L170.0 44.5 L171.3 45.1 L172.7 45.8 L174.0 46.6 L175.3 47.6 L176.7 48.8 L178.0 50.3 L179.3 52.1 L180.7 54.2 L182.0 56.8 L183.3 59.7 L184.7 63.2 L186.0 67.1 L187.3 71.6 L188.7 76.6 L190.0 82.3 L191.3 88.5 L192.7 95.3 L194.0 102.5 L195.3 110.3 L196.7 118.4 L198.0 126.8 L199.3 135.4 L200.7 144.0 L202.0 152.4 L203.3 160.6 L204.7 168.3 L206.0 175.5 L207.3 181.8 L208.7 187.3 L210.0 191.7 L211.3 194.9 L212.7 196.9 L214.0 197.6 L215.3 197.1 L216.7 195.2 L218.0 192.1 L219.3 187.9 L220.7 182.6 L222.0 176.4 L223.3 169.4 L224.7 161.8 L226.0 153.8 L227.3 145.4 L228.7 137.0 L230.0 128.6 L231.3 120.3 L232.7 112.4 L234.0 104.8 L235.3 97.6 L236.7 91.0 L238.0 85.0 L239.3 79.5 L240.7 74.6 L242.0 70.2 L243.3 66.4 L244.7 63.2 L246.0 60.4 L247.3 58.0 L248.7 56.0 L250.0 54.4 L251.3 53.0 L252.7 52.0 L254.0 51.1 L255.3 50.4 L256.7 49.9 L258.0 49.5 L259.3 49.2 L260.7 49.0 L262.0 48.8 L263.3 48.7 L264.7 48.7 L266.0 48.7 L267.3 48.7 L268.7 48.7 L270.0 48.7 L271.3 48.7 L272.7 48.8 L274.0 48.8 L275.3 48.9 L276.7 48.9 L278.0 49.0 L279.3 49.0 L280.7 49.1 L282.0 49.1 L283.3 49.2 L284.7 49.2 L286.0 49.3 L287.3 49.4 L288.7 49.4 L290.0 49.5 L291.3 49.5 L292.7 49.6 L294.0 49.7 L295.3 49.7 L296.7 49.8 L298.0 49.8 L299.3 49.9 L300.7 49.9 L302.0 50.0 L303.3 50.1 L304.7 50.1 L306.0 50.2 L307.3 50.3 L308.7 50.3 L310.0 50.4 L311.3 50.5 L312.7 50.5 L314.0 50.6 L315.3 50.7 L316.7 50.7 L318.0 50.8 L319.3 50.9 L320.7 50.9 L322.0 51.0 L323.3 51.1 L324.7 51.2 L326.0 51.3 L327.3 51.3 L328.7 51.4 L330.0 51.5 L331.3 51.6 L332.7 51.7 L334.0 51.8 L335.3 51.9 L336.7 52.0 L338.0 52.1 L339.3 52.2 L340.7 52.3 L342.0 52.4 L343.3 52.5 L344.7 52.6 L346.0 52.7 L347.3 52.9 L348.7 53.0 L350.0 53.1 L351.3 53.3 L352.7 53.4 L354.0 53.5 L355.3 53.7 L356.7 53.8 L358.0 54.0 L359.3 54.2 L360.7 54.3 L362.0 54.5 L363.3 54.7 L364.7 54.9 L366.0 55.1 L367.3 55.3 L368.7 55.5 L370.0 55.7 L371.3 55.9 L372.7 56.1 L374.0 56.4 L375.3 56.6 L376.7 56.9 L378.0 57.1 L379.3 57.4 L380.7 57.7 L382.0 58.0 L383.3 58.2 L384.7 58.6 L386.0 58.9 L387.3 59.2 L388.7 59.5 L390.0 59.9 L391.3 60.2 L392.7 60.6 L394.0 61.0 L395.3 61.4 L396.7 61.8 L398.0 62.2 L399.3 62.6 L400.7 63.0 L402.0 63.5 L403.3 63.9 L404.7 64.4 L406.0 64.9 L407.3 65.4 L408.7 65.9 L410.0 66.5 L411.3 67.0 L412.7 67.6 L414.0 68.2 L415.3 68.8 L416.7 69.4 L418.0 70.0 L419.3 70.6 L420.7 71.3 L422.0 72.0 L423.3 72.7 L424.7 73.4 L426.0 74.1 L427.3 74.8 L428.7 75.6 L430.0 76.4 L431.3 77.2 L432.7 78.0 L434.0 78.8 L435.3 79.6 L436.7 80.5 L438.0 81.4 L439.3 82.3 L440.7 83.2 L442.0 84.1 L443.3 85.1 L444.7 86.1 L446.0 87.1 L447.3 88.1 L448.7 89.1 L450.0 90.2 L451.3 91.2 L452.7 92.3 L454.0 93.4 L455.3 94.5 L456.7 95.7 L458.0 96.8 L459.3 98.0 L460.7 99.2 L462.0 100.4 L463.3 101.6 L464.7 102.8 L466.0 104.1 L467.3 105.4 L468.7 106.7 L470.0 108.0 L471.3 109.3 L472.7 110.6 L474.0 111.9 L475.3 113.3 L476.7 114.7 L478.0 116.1 L479.3 117.5 L480.7 118.9 L482.0 120.3 L483.3 121.7 L484.7 123.1 L486.0 124.6 L487.3 126.0 L488.7 127.5 L490.0 129.0 L491.3 130.5 L492.7 131.9 L494.0 133.4 L495.3 134.9 L496.7 136.4 L498.0 137.9 L499.3 139.4 L500.7 140.9 L502.0 142.4 L503.3 143.9 L504.7 145.4 L506.0 146.9 L507.3 148.4 L508.7 149.9 L510.0 151.4 L511.3 152.9 L512.7 154.3 L514.0 155.8 L515.3 157.3 L516.7 158.7 L518.0 160.1 L519.3 161.6 L520.7 163.0 L522.0 164.4 L523.3 165.8 L524.7 167.1 L526.0 168.5 L527.3 169.8 L528.7 171.1 L530.0 172.4 L531.3 173.7 L532.7 175.0 L534.0 176.2 L535.3 177.4 L536.7 178.6 L538.0 179.8 L539.3 180.9 L540.7 182.0 L542.0 183.1 L543.3 184.1 L544.7 185.2 L546.0 186.2 L547.3 187.1 L548.7 188.1 L550.0 189.0 L551.3 189.8 L552.7 190.7 L554.0 191.5 L555.3 192.2 L556.7 193.0 L558.0 193.6 L559.3 194.3 L560.7 194.9 L562.0 195.5 L563.3 196.0 L564.7 196.5 L566.0 197.0 L567.3 197.4 L568.7 197.8 L570.0 198.1 L571.3 198.4 L572.7 198.7 L574.0 198.9 L575.3 199.1 L576.7 199.2 L578.0 199.3 L579.3 199.3 L580.7 199.3 L582.0 199.3 L583.3 199.2 L584.7 199.1 L586.0 198.9 L587.3 198.7 L588.7 198.4 L590.0 198.1 L591.3 197.8 L592.7 197.4 L594.0 197.0 L595.3 196.5 L596.7 196.0 L598.0 195.5 L599.3 194.9 L600.7 194.3 L602.0 193.6 L603.3 192.9 L604.7 192.2 L606.0 191.4 L607.3 190.6 L608.7 189.7 L610.0 188.8 L611.3 187.9 L612.7 187.0 L614.0 186.0 L615.3 184.9 L616.7 183.9 L618.0 182.8 L619.3 181.7 L620.7 180.5 L622.0 179.3 L623.3 178.1 L624.7 176.9 L626.0 175.6 L627.3 174.4 L628.7 173.0 L630.0 171.7 L631.3 170.3 L632.7 169.0 L634.0 167.6 L635.3 166.1 L636.7 164.7 L638.0 163.2 L639.3 161.8 L640.7 160.3 L642.0 158.8 L643.3 157.2 L644.7 155.7 L646.0 154.1 L647.3 152.6 L648.7 151.0 L650.0 149.4 L651.3 147.8 L652.7 146.2 L654.0 144.6 L655.3 143.0 L656.7 141.4 L658.0 139.8 L659.3 138.2 L660.7 136.5 L662.0 134.9 L663.3 133.3 L664.7 131.7 L666.0 130.0 L667.3 128.4 L668.7 126.8 L670.0 125.2 L671.3 123.6 L672.7 122.0 L674.0 120.4 L675.3 118.8 L676.7 117.2 L678.0 115.6 L679.3 114.0 L680.7 112.5 L682.0 110.9 L683.3 109.4 L684.7 107.8 L686.0 106.3 L687.3 104.8 L688.7 103.3 L690.0 101.8 L691.3 100.4 L692.7 98.9 L694.0 97.5 L695.3 96.0 L696.7 94.6 L698.0 93.2 L699.3 91.8 L700.7 90.5 L702.0 89.1 L703.3 87.8 L704.7 86.5 L706.0 85.2 L707.3 83.9 L708.7 82.7 L710.0 81.4 L711.3 80.2 L712.7 79.0 L714.0 77.8 L715.3 76.6 L716.7 75.5 L718.0 74.3 L719.3 73.2 L720.7 72.1 L722.0 71.0 L723.3 70.0 L724.7 68.9 L726.0 67.9 L727.3 66.9 L728.7 65.9 L730.0 64.9 L731.3 64.0 L732.7 63.0 L734.0 62.1 L735.3 61.2 L736.7 60.3 L738.0 59.5 L739.3 58.6 L740.7 57.8 L742.0 57.0 L743.3 56.2 L744.7 55.4 L746.0 54.6 L747.3 53.9 L748.7 53.1 L750.0 52.4 L751.3 51.7 L752.7 51.0 L754.0 50.3 L755.3 49.7 L756.7 49.0 L758.0 48.4 L759.3 47.8 L760.7 47.2 L762.0 46.6 L763.3 46.0 L764.7 45.5 L766.0 44.9 L767.3 44.4 L768.7 43.9 L770.0 43.3 L771.3 42.8 L772.7 42.3 L774.0 41.9 L775.3 41.4 L776.7 40.9 L778.0 40.5 L779.3 40.1 L780.7 39.6 L782.0 39.2 L783.3 38.8 L784.7 38.4 L786.0 38.0 L787.3 37.6 L788.7 37.2 L790.0 36.9 L791.3 36.5 L792.7 36.2 L794.0 35.8 L795.3 35.5 L796.7 35.1 L798.0 34.8 L799.3 34.5 L800.7 34.2 L802.0 33.9 L803.3 33.6 L804.7 33.3 L806.0 33.0 L807.3 32.7 L808.7 32.4 L810.0 32.2 L811.3 31.9 L812.7 31.6 L814.0 31.4 L815.3 31.1 L816.7 30.9 L818.0 30.6 L819.3 30.4 L820.7 30.1 L822.0 29.9 L823.3 29.7 L824.7 29.4 L826.0 29.2 L827.3 29.0 L828.7 28.7 L830.0 28.5" fill="none" stroke="#5f5e5a" stroke-width="2"/>
<polygon points="94.0,234.8 98.8,234.4 103.6,234.0 108.4,233.5 113.2,232.9 118.0,232.2 122.8,231.4 127.6,230.5 132.4,229.4 137.2,228.2 142.0,226.9 146.8,225.5 151.6,224.0 156.4,222.4 161.2,220.7 166.0,219.0 170.8,217.3 175.6,215.7 180.4,214.1 185.2,212.6 190.0,211.3 194.8,210.2 199.6,209.2 204.4,208.6 209.2,208.1 214.0,208.0 218.8,208.1 223.6,208.6 228.4,209.2 233.2,210.2 238.0,211.3 242.8,212.6 247.6,214.1 252.4,215.7 257.2,217.3 262.0,219.0 266.8,220.7 271.6,222.4 276.4,224.0 281.2,225.5 286.0,226.9 290.8,228.2 295.6,229.4 300.4,230.5 305.2,231.4 310.0,232.2 314.8,232.9 319.6,233.5 324.4,234.0 329.2,234.4 334.0,234.8" fill="#F1EFE8" stroke="#B4B2A9" stroke-width="1.5" opacity="0.9"/>
<path d="M170.8 44.9 L175.6 47.8 L180.4 53.8 L185.2 64.7 L190.0 82.3 L194.8 107.1 L199.6 137.1 L204.4 166.8 L209.2 189.2 L214.0 197.6 L218.8 189.7 L223.6 167.9 L228.4 138.7 L233.2 109.3 L238.0 85.0 L242.8 67.9 L247.6 57.6 L252.4 52.2 L257.2 49.7" fill="none" stroke="#B4B2A9" stroke-width="4" stroke-linecap="round"/>
<polygon points="462.0,234.8 466.8,234.4 471.6,234.0 476.4,233.5 481.2,232.9 486.0,232.2 490.8,231.4 495.6,230.5 500.4,229.4 505.2,228.2 510.0,226.9 514.8,225.5 519.6,224.0 524.4,222.4 529.2,220.7 534.0,219.0 538.8,217.3 543.6,215.7 548.4,214.1 553.2,212.6 558.0,211.3 562.8,210.2 567.6,209.2 572.4,208.6 577.2,208.1 582.0,208.0 586.8,208.1 591.6,208.6 596.4,209.2 601.2,210.2 606.0,211.3 610.8,212.6 615.6,214.1 620.4,215.7 625.2,217.3 630.0,219.0 634.8,220.7 639.6,222.4 644.4,224.0 649.2,225.5 654.0,226.9 658.8,228.2 663.6,229.4 668.4,230.5 673.2,231.4 678.0,232.2 682.8,232.9 687.6,233.5 692.4,234.0 697.2,234.4 702.0,234.8" fill="#EEEDFE" stroke="#534AB7" stroke-width="1.5" opacity="0.9"/>
<path d="M538.8 180.4 L543.6 184.4 L548.4 187.9 L553.2 191.0 L558.0 193.6 L562.8 195.8 L567.6 197.5 L572.4 198.6 L577.2 199.2 L582.0 199.3 L586.8 198.8 L591.6 197.7 L596.4 196.1 L601.2 194.0 L606.0 191.4 L610.8 188.3 L615.6 184.7 L620.4 180.8 L625.2 176.4" fill="none" stroke="#534AB7" stroke-width="4" stroke-linecap="round"/>
<text x="214" y="284.9" font-size="14" fill="#888780" text-anchor="middle">Sharp minimum: noise kicks w out</text>
<text x="214" y="304.9" font-size="14" fill="#888780" text-anchor="middle">needs a precise w (many bits)</text>
<text x="582" y="284.9" font-size="14" fill="#534AB7" text-anchor="middle">Flat minimum: robust to noise</text>
<text x="582" y="304.9" font-size="14" fill="#534AB7" text-anchor="middle">a rough w is enough (few bits)</text>
<path d="M534.0 118 H630.0" stroke="#1F5B8A" stroke-width="1.5"/>
<path d="M534.0 113 V123 M630.0 113 V123" stroke="#1F5B8A" stroke-width="1.5"/>
<text x="582" y="109.2" font-size="15" fill="#1F5B8A" text-anchor="middle" font-style="italic">noise ∝ η / B</text>
</svg>
