<svg xmlns="http://www.w3.org/2000/svg" width="900" height="330" viewBox="0 0 900 330" font-family="Helvetica Neue, Helvetica, Arial, sans-serif">
<defs><marker id="a" viewBox="0 0 10 10" refX="8" refY="5" markerWidth="10" markerHeight="10" markerUnits="userSpaceOnUse" orient="auto"><path d="M2 1L8 5L2 9" fill="none" stroke="#888780" stroke-width="1.5" stroke-linecap="round" stroke-linejoin="round"/></marker><marker id="s" viewBox="0 0 10 10" refX="8" refY="5" markerWidth="10" markerHeight="10" markerUnits="userSpaceOnUse" orient="auto"><path d="M2 1L8 5L2 9" fill="none" stroke="#BA7517" stroke-width="1.5" stroke-linecap="round" stroke-linejoin="round"/></marker><marker id="t" viewBox="0 0 10 10" refX="8" refY="5" markerWidth="10" markerHeight="10" markerUnits="userSpaceOnUse" orient="auto"><path d="M2 1L8 5L2 9" fill="none" stroke="#0F6E56" stroke-width="1.5" stroke-linecap="round" stroke-linejoin="round"/></marker><marker id="p" viewBox="0 0 10 10" refX="8" refY="5" markerWidth="10" markerHeight="10" markerUnits="userSpaceOnUse" orient="auto"><path d="M2 1L8 5L2 9" fill="none" stroke="#534AB7" stroke-width="1.5" stroke-linecap="round" stroke-linejoin="round"/></marker><marker id="m" viewBox="0 0 10 10" refX="8" refY="5" markerWidth="10" markerHeight="10" markerUnits="userSpaceOnUse" orient="auto"><path d="M2 1L8 5L2 9" fill="none" stroke="#854F0B" stroke-width="1.5" stroke-linecap="round" stroke-linejoin="round"/></marker></defs>
<rect x="10" y="114.0" width="155.62" height="58" rx="6" fill="#E1F5EE" stroke="#0F6E56" stroke-width="0.5"/>
<text x="87.81" y="135.6" font-size="13" fill="#085041" text-anchor="middle">Build a todo</text>
<text x="87.81" y="159.6" font-size="13" fill="#085041" text-anchor="middle">REST API, with tests</text>
<text x="87.81" y="194.2" font-size="12" fill="#5f5e5a" text-anchor="middle">one prompt</text>
<rect x="690" y="22" width="210" height="134" rx="6" fill="#EAF3DE" stroke="#3B6D11" stroke-width="0.75"/>
<text x="795" y="12.9" font-size="14" fill="#27500A" text-anchor="middle">Goal set</text>
<path d="M169.62 143 L244 57" fill="none" stroke="#888780" stroke-width="1.5" stroke-linecap="round" marker-end="url(#a)"/>
<rect x="250" y="40" width="94" height="34" rx="6" fill="#EEEDFE" stroke="#534AB7" stroke-width="0.5"/><text x="297" y="61.2" font-size="12" fill="#3C3489" text-anchor="middle">write api.py</text>
<rect x="350" y="40" width="95" height="34" rx="6" fill="#EEEDFE" stroke="#534AB7" stroke-width="0.5"/><text x="397.5" y="61.2" font-size="12" fill="#3C3489" text-anchor="middle">run tests ✗</text>
<rect x="451" y="40" width="84" height="34" rx="6" fill="#EEEDFE" stroke="#534AB7" stroke-width="0.5"/><text x="493" y="61.2" font-size="12" fill="#3C3489" text-anchor="middle">fix import</text>
<rect x="541" y="40" width="95" height="34" rx="6" fill="#EEEDFE" stroke="#534AB7" stroke-width="0.5"/><text x="588.5" y="61.2" font-size="12" fill="#3C3489" text-anchor="middle">run tests ✓</text>
<path d="M640 57 L698 57" fill="none" stroke="#888780" stroke-width="1.5" stroke-linecap="round" marker-end="url(#a)"/>
<rect x="730" y="40" width="130" height="34" rx="6" fill="#EAF3DE" stroke="#3B6D11" stroke-width="0.5"/><text x="795" y="61.5" font-size="13" fill="#27500A" text-anchor="middle">tests pass</text>
<path d="M169.62 143 L244 121" fill="none" stroke="#888780" stroke-width="1.5" stroke-linecap="round" marker-end="url(#a)"/>
<rect x="250" y="104" width="94" height="34" rx="6" fill="#EEEDFE" stroke="#534AB7" stroke-width="0.5"/><text x="297" y="125.2" font-size="12" fill="#3C3489" text-anchor="middle">write tests</text>
<rect x="350" y="104" width="94" height="34" rx="6" fill="#EEEDFE" stroke="#534AB7" stroke-width="0.5"/><text x="397" y="125.2" font-size="12" fill="#3C3489" text-anchor="middle">write api.py</text>
<rect x="450" y="104" width="95" height="34" rx="6" fill="#EEEDFE" stroke="#534AB7" stroke-width="0.5"/><text x="497.5" y="125.2" font-size="12" fill="#3C3489" text-anchor="middle">run tests ✓</text>
<path d="M549 121 L698 121" fill="none" stroke="#888780" stroke-width="1.5" stroke-linecap="round" marker-end="url(#a)"/>
<rect x="730" y="104" width="130" height="34" rx="6" fill="#EAF3DE" stroke="#3B6D11" stroke-width="0.5"/><text x="795" y="125.5" font-size="13" fill="#27500A" text-anchor="middle">tests pass</text>
<path d="M169.62 143 L244 185" fill="none" stroke="#888780" stroke-width="1.5" stroke-linecap="round" marker-end="url(#a)"/>
<rect x="250" y="168" width="94" height="34" rx="6" fill="#EEEDFE" stroke="#534AB7" stroke-width="0.5"/><text x="297" y="189.2" font-size="12" fill="#3C3489" text-anchor="middle">write api.py</text>
<rect x="350" y="168" width="117" height="34" rx="6" fill="#EEEDFE" stroke="#534AB7" stroke-width="0.5"/><text x="408.5" y="189.2" font-size="12" fill="#3C3489" text-anchor="middle">switch to Flask</text>
<rect x="473" y="168" width="107" height="34" rx="6" fill="#EEEDFE" stroke="#534AB7" stroke-width="0.5"/><text x="526.5" y="189.2" font-size="12" fill="#3C3489" text-anchor="middle">rewrite api.py</text>
<rect x="586" y="168" width="98" height="34" rx="6" fill="#EEEDFE" stroke="#534AB7" stroke-width="0.5"/><text x="635" y="189.2" font-size="12" fill="#3C3489" text-anchor="middle">delete tests</text>
<line x1="350" y1="207" x2="684" y2="207" stroke="#BA7517" stroke-width="2" stroke-dasharray="5 4"/>
<path d="M688 185 L704 185" fill="none" stroke="#BA7517" stroke-width="1.5" stroke-linecap="round" stroke-dasharray="5 4" marker-end="url(#s)"/>
<rect x="710" y="168" width="170" height="34" rx="6" fill="#FAEEDA" stroke="#854F0B" stroke-width="0.5" stroke-dasharray="4 3"/><text x="795" y="189.6" font-size="13" fill="#633806" text-anchor="middle">wrong framework, no tests</text>
<path d="M169.62 143 L244 249" fill="none" stroke="#888780" stroke-width="1.5" stroke-linecap="round" marker-end="url(#a)"/>
<rect x="250" y="232" width="94" height="34" rx="6" fill="#EEEDFE" stroke="#534AB7" stroke-width="0.5"/><text x="297" y="253.2" font-size="12" fill="#3C3489" text-anchor="middle">write api.py</text>
<rect x="350" y="232" width="95" height="34" rx="6" fill="#EEEDFE" stroke="#534AB7" stroke-width="0.5"/><text x="397.5" y="253.2" font-size="12" fill="#3C3489" text-anchor="middle">run tests ✗</text>
<rect x="451" y="232" width="39" height="34" rx="6" fill="#EEEDFE" stroke="#534AB7" stroke-width="0.5"/><text x="470.5" y="253.2" font-size="12" fill="#3C3489" text-anchor="middle">fix</text>
<rect x="496" y="232" width="95" height="34" rx="6" fill="#EEEDFE" stroke="#534AB7" stroke-width="0.5"/><text x="543.5" y="253.2" font-size="12" fill="#3C3489" text-anchor="middle">run tests ✗</text>
<rect x="597" y="232" width="39" height="34" rx="6" fill="#EEEDFE" stroke="#534AB7" stroke-width="0.5"/><text x="616.5" y="253.2" font-size="12" fill="#3C3489" text-anchor="middle">fix</text>
<line x1="350" y1="271" x2="636" y2="271" stroke="#BA7517" stroke-width="2" stroke-dasharray="5 4"/>
<path d="M640 249 L704 249" fill="none" stroke="#BA7517" stroke-width="1.5" stroke-linecap="round" stroke-dasharray="5 4" marker-end="url(#s)"/>
<rect x="710" y="232" width="170" height="34" rx="6" fill="#FAEEDA" stroke="#854F0B" stroke-width="0.5" stroke-dasharray="4 3"/><text x="795" y="253.6" font-size="13" fill="#633806" text-anchor="middle">stuck in a loop</text>
<rect x="250" y="309" width="14" height="14" rx="3" fill="#E1F5EE" stroke="#0F6E56" stroke-width="0.5"/>
<text x="272" y="320.6" font-size="13" fill="#5f5e5a" text-anchor="start">Prompt (control)</text>
<rect x="415" y="309" width="14" height="14" rx="3" fill="#EEEDFE" stroke="#534AB7" stroke-width="0.5"/>
<text x="437" y="320.6" font-size="13" fill="#5f5e5a" text-anchor="start">Agent step (sampled)</text>
<rect x="608" y="309" width="14" height="14" rx="3" fill="#FAEEDA" stroke="#854F0B" stroke-width="0.5"/>
<text x="630" y="320.6" font-size="13" fill="#5f5e5a" text-anchor="start">Drifted off course</text>
</svg>
